<svg xmlns="http://www.w3.org/2000/svg" viewBox="0 0 24 24" fill="currentColor" class="w-6 h-6">
  <path fill-rule="evenodd" d="M7.502 6.002C7.003 6.002 6.5 6.505 6.5 7.004v9.992c0 .5.503 1.002 1.002 1.002h9.992c.5 0 1.002-.502 1.002-1.002V7.004c0-.5-.502-1.002-1.002-1.002H7.502ZM8.5 7.5a.5.5 0 0 0-.5.5v2.5a.5.5 0 0 0 .5.5h2.5a.5.5 0 0 0 .5-.5V8a.5.5 0 0 0-.5-.5H8.5Z" clip-rule="evenodd" />
  <path d="M2.996 4.006A3.004 3.004 0 0 1 6.002 1h11.992a3.004 3.004 0 0 1 3.004 3.006v11.988a3.004 3.004 0 0 1-3.004 3.006H6.002a3.004 3.004 0 0 1-3.006-3.006V4.006ZM6.002 3a1.001 1.001 0 0 0-1.002 1.002v.998h-1V4.006a2.002 2.002 0 0 1 2.002-2.002h.998v-1Zm1.002 18.992h.998v1h-.998a2.002 2.002 0 0 1-2.002-2.002v-.998h1v.998a1.001 1.001 0 0 0 1.002 1.002ZM19 4.002a1.001 1.001 0 0 0-1.002-1.002h-.998v-1h.998a2.002 2.002 0 0 1 2.002 2.002v.998h-1v-.998ZM18.998 19a1.001 1.001 0 0 0 1.002-1.002v-.998h1v.998a2.002 2.002 0 0 1-2.002 2.002h-.998v-1h.998Z" />
</svg>
